<svg xmlns="http://www.w3.org/2000/svg" xmlns:xlink="http://www.w3.org/1999/xlink" fill="none" height="1030" viewBox="0 0 1304 1030" width="1304"><linearGradient id="a" gradientUnits="userSpaceOnUse" x1="762.597" x2="919.83" y1="786.986" y2="982.904"><stop offset="0" stop-color="#6063f9"/><stop offset="1" stop-color="#b74af7"/></linearGradient><linearGradient id="b" gradientUnits="userSpaceOnUse" x1="750.174" x2="1324.35" y1="1077.87" y2="324.283"><stop offset="0" stop-color="#087cfa"/><stop offset="1" stop-color="#6063f9"/></linearGradient><linearGradient id="c" gradientUnits="userSpaceOnUse" x1="676.528" x2="4.618" y1="-213.909" y2="452.462"><stop offset=".358" stop-color="#22b3ae"/><stop offset="1" stop-color="#087cfa"/></linearGradient><linearGradient id="d" gradientUnits="userSpaceOnUse" x1="1308.13" x2="774.118" y1="123.246" y2="-851.449"><stop offset=".074" stop-color="#22b3ae"/><stop offset="1" stop-color="#3bea62"/></linearGradient><clipPath id="e"><path d="m0 0h1347v1345h-1347z" transform="translate(0 -315)"/></clipPath><g clip-path="url(#e)"><path d="m837.039 1030h47.391l-23.632-295.563-83.106 10.76z" fill="url(#a)"/><path d="m1344.76 370.053-548.949 446.204-18.119-71.061 477.568-502.021z" fill="#6063f9"/><path d="m391.208 863.668-41.947-150.976 905.989-469.517 89.51 126.878z" fill="url(#b)"/><path d="m1062.65 233.197-671.442 630.469-41.947-150.976 450.485-551.226z" fill="url(#c)"/><path d="m0-315 862.764 734.258 199.886-186.058-266.351-548.2z" fill="url(#d)"/></g></svg>