<svg height="60" viewBox="0 0 60 60" width="60" xmlns="http://www.w3.org/2000/svg" xmlns:xlink="http://www.w3.org/1999/xlink"><linearGradient id="a" gradientTransform="matrix(1 0 0 -1 0 72)" gradientUnits="userSpaceOnUse" x1="1.5253" x2="34.39307" y1="45.14771" y2="45.14771"><stop offset="0" stop-color="#905cfb"/><stop offset=".068" stop-color="#776cf9"/><stop offset=".173" stop-color="#5681f7"/><stop offset=".286" stop-color="#3b92f5"/><stop offset=".41" stop-color="#269ff4"/><stop offset=".547" stop-color="#17a9f3"/><stop offset=".711" stop-color="#0faef2"/><stop offset=".968" stop-color="#0cb0f2"/></linearGradient><linearGradient id="b" x1="4.5721" x2="59.33393" xlink:href="#a" y1="63.67942" y2="34.38063"/><linearGradient id="c" gradientTransform="matrix(1 0 0 -1 0 72)" gradientUnits="userSpaceOnUse" x1="-16.53104" x2="47.95507" y1="11.26623" y2="43.50971"><stop offset="0" stop-color="#3bea62"/><stop offset=".117" stop-color="#31de80"/><stop offset=".302" stop-color="#24cea8"/><stop offset=".484" stop-color="#1ac1c9"/><stop offset=".659" stop-color="#12b7df"/><stop offset=".824" stop-color="#0eb2ed"/><stop offset=".968" stop-color="#0cb0f2"/></linearGradient><linearGradient id="d" gradientTransform="matrix(1 0 0 -1 0 72)" gradientUnits="userSpaceOnUse" x1="33.35159" x2="4.63198" y1="66.91804" y2="5.52313"><stop offset="0" stop-color="#3bea62"/><stop offset=".094" stop-color="#2fdb87"/><stop offset=".196" stop-color="#24cea8"/><stop offset=".306" stop-color="#1bc3c3"/><stop offset=".426" stop-color="#14bad8"/><stop offset=".56" stop-color="#10b5e7"/><stop offset=".719" stop-color="#0db1ef"/><stop offset=".968" stop-color="#0cb0f2"/></linearGradient><path d="m34.01389 41.11574-5.22627-29.13a15.64916 15.64916 0 0 0 -2.31326-6.083 12.39023 12.39023 0 0 0 -7.53953-5.39765c-12.16606-2.913-21.16209 9.25306-15.85015 20.0483l12.68012 27.15944a10.47805 10.47805 0 0 0 1.4565 2.48462 8.06987 8.06987 0 0 0 4.02679 2.913 9.85537 9.85537 0 0 0 12.7658-11.99471z" fill="url(#a)"/><path d="m57.74627 22.781a11.02037 11.02037 0 0 0 -4.88356-4.19815l-31.01488-17.04964a13.88488 13.88488 0 0 0 -2.82733-1.11379c-13.27985-3.08436-22.78994 11.48064-14.30797 22.78994a11.54069 11.54069 0 0 0 5.14059 3.85544l31.27188 14.05094a9.575 9.575 0 0 0 2.14192.94244c11.99473 3.76982 21.07644-8.91035 14.47935-19.27718z" fill="url(#b)"/><path d="m57.74627 22.781a11.11694 11.11694 0 0 0 -6.76844-4.79789 13.24069 13.24069 0 0 0 -8.22494.59974l-32.98544 12.42307a3.91738 3.91738 0 0 0 -.51406.3427c-8.482 3.34139-12.68012 14.39365-5.826 23.561a11.73317 11.73317 0 0 0 6.083 4.28383 15.39051 15.39051 0 0 0 11.9947-.94244h.08568l32.21435-17.221.08568-.08568c5.65468-3.25564 8.31065-11.22355 3.85547-18.16333z" fill="url(#c)"/><path d="m43.09559 11.0433a7.8969 7.8969 0 0 0 -.77109-7.71088 6.804 6.804 0 0 0 -4.19815-2.99868 7.61085 7.61085 0 0 0 -8.65335 3.59841l-26.474 32.12868v.08568c-3.76977 4.96923-4.3695 12.33741.42838 18.76314a11.73325 11.73325 0 0 0 6.083 4.28383c8.996 2.82732 16.53556-2.14191 18.9345-9.25306z" fill="url(#d)"/></svg>