<svg height="60" viewBox="0 0 60 60" width="60" xmlns="http://www.w3.org/2000/svg" xmlns:xlink="http://www.w3.org/1999/xlink"><linearGradient id="a" gradientTransform="matrix(1 0 0 -1 0 72)" gradientUnits="userSpaceOnUse" x1="48.55626" x2="31.57989" y1="47.60804" y2="21.72383"><stop offset=".174" stop-color="#078efc"/><stop offset=".204" stop-color="#118afc"/><stop offset=".435" stop-color="#5971fc"/><stop offset=".627" stop-color="#8e5efc"/><stop offset=".77" stop-color="#af52fc"/><stop offset=".849" stop-color="#bb4efc"/></linearGradient><linearGradient id="b" x1="5.93873" x2="40.36642" xlink:href="#a" y1="45.09089" y2="70.99211"/><linearGradient id="c" gradientTransform="matrix(1 0 0 -1 0 72)" gradientUnits="userSpaceOnUse" x1="8.33588" x2="51.61754" y1="19.58561" y2="47.39799"><stop offset="0" stop-color="#078efc"/><stop offset=".106" stop-color="#15a7d3"/><stop offset=".228" stop-color="#23bfaa"/><stop offset=".348" stop-color="#2dd28b"/><stop offset=".463" stop-color="#35df74"/><stop offset=".573" stop-color="#39e767"/><stop offset=".67" stop-color="#3bea62"/></linearGradient><path d="m51.34276 19.85512 8.65724 19.23357-12.24045 20.9104-29.40155-23.95554 15.036-14.49255z" fill="url(#a)"/><path d="m38.8437 38.35282 8.91585 21.64718-27.1622-9.33686-2.23935-14.61868z" fill="#bb4efc"/><path d="m21.40582 8.12461 12.5 6.406-11.24964 34.06281-22.65618-.23592 4.86715-10.79319-4.86715-13.79297z" fill="#078efc"/><path d="m37.087 0 5.91153 20.11645-42.99853 3.65489 13.675-23.77134z" fill="url(#b)"/><path d="m60 12.73951-25.156 5.97049-34.844 29.6475 22.4738 11.6425 19.52212-20.12643z" fill="url(#c)"/></svg>