<svg xmlns="http://www.w3.org/2000/svg" xmlns:xlink="http://www.w3.org/1999/xlink" version="1.1" id="Layer_1" x="0px" y="0px" width="688px" height="751px" viewBox="0 0 688 751" style="enable-background:new 0 0 688 751;" xml:space="preserve"> <style type="text/css"> .st0{fill:#FFE431;} .st1{fill:url(#Path_4_);} .st2{fill:url(#Path_5_);} .st3{fill:url(#Path_6_);} </style> <title>Group</title> <desc>Created with Sketch.</desc> <g id="Page-1"> <g id="DevOpsHeader3" transform="translate(-732.000000, 0.000000)"> <g id="beam_x2F_WYouTrack" transform="translate(0.000000, -5.000000)"> <g id="Group" transform="translate(732.000000, -5.000000)"> <polyline id="Path" class="st0" points="65.6,0 314.9,178 327.5,142.8 76,0 "/> <linearGradient id="Path_4_" gradientUnits="userSpaceOnUse" x1="-151.3" y1="2.0051" x2="-150.7651" y2="1.1446" gradientTransform="matrix(329.582 0 0 377.5311 49959.8828 -294.0262)"> <stop offset="0" style="stop-color:#FF5700"/> <stop offset="0.1318" style="stop-color:#FF5E02"/> <stop offset="0.3214" style="stop-color:#FF7109"/> <stop offset="0.546" style="stop-color:#FF9014"/> <stop offset="0.7951" style="stop-color:#FFBB23"/> <stop offset="1" style="stop-color:#FFE431"/> </linearGradient> <path id="Path_1_" class="st1" d="M327.5,142.8c-10.3-4.7-25.9,3.5-33.6,12L12.5,450.2l68,71.4L336,179.9 C345,167.3,344,151.5,327.5,142.8z"/> <linearGradient id="Path_5_" gradientUnits="userSpaceOnUse" x1="-151.4614" y1="1.7206" x2="-150.922" y2="1.1155" gradientTransform="matrix(623 0 0 477.6816 94544 -388.6434)"> <stop offset="0" style="stop-color:#FF5700"/> <stop offset="7.964271e-02" style="stop-color:#FF4B12"/> <stop offset="0.2753" style="stop-color:#FF3039"/> <stop offset="0.4686" style="stop-color:#FF1B58"/> <stop offset="0.6566" style="stop-color:#FF0C6E"/> <stop offset="0.8365" style="stop-color:#FF037C"/> <stop offset="1" style="stop-color:#FF0080"/> </linearGradient> <path id="Path_2_" class="st2" d="M80.5,521.5C87.9,518.8,623,185.9,623,185.9L576.8,49.3L19.9,443.8c-0.3,0.1-0.5,0.4-0.8,0.5 l-0.6,0.4C6.5,453.8,0,467.4,0,481c0,32.5,30,46,53.9,46C64.1,527,72.9,525,80.5,521.5L80.5,521.5z"/> <linearGradient id="Path_6_" gradientUnits="userSpaceOnUse" x1="-151.3005" y1="1.5727" x2="-151.0445" y2="0.6077" gradientTransform="matrix(476.8867 0 0 758 72545.8906 -398.9705)"> <stop offset="0" style="stop-color:#9A4BD3"/> <stop offset="0.176" style="stop-color:#9F47CF"/> <stop offset="0.3874" style="stop-color:#AE3CC3"/> <stop offset="0.617" style="stop-color:#C62AAF"/> <stop offset="0.8579" style="stop-color:#E81193"/> <stop offset="1" style="stop-color:#FF0080"/> </linearGradient> <path id="Path_3_" class="st3" d="M620.1,39.1c-26.4-1.4-50.3,10.3-64.2,28.8L211.1,797h303.3c0,0,172.9-679.2,173.4-688 C690.3,72.6,659.9,41.4,620.1,39.1z"/> </g> </g> </g> </g> </svg>