<svg xmlns="http://www.w3.org/2000/svg" xmlns:xlink="http://www.w3.org/1999/xlink" version="1.1" id="Layer_1" x="0px" y="0px" width="105px" height="105px" viewBox="0 0 105 105" enable-background="new 0 0 105 105" xml:space="preserve">
<linearGradient id="SVGID_1_" gradientUnits="userSpaceOnUse" x1="-17.6598" y1="619.3021" x2="72.5042" y2="584.15" gradientTransform="matrix(0.9998 2.016249e-02 -2.016249e-02 0.9998 39.171 -526.2256)">
	<stop offset="8.265736e-02" style="stop-color:#FCF84A"/>
  <stop offset="0.8565" style="stop-color:#FF318C"/>
</linearGradient>
  <path fill="url(#SVGID_1_)" d="M101.5,63.1c0-9-9.8-15.2-17.9-11.5L8.2,85.7c-8.2,3.8-3,16.7,5.4,14c0.1,0.1,78.6-24,78.8-24  C97.7,74,101.6,69,101.5,63.1z"/>
  <linearGradient id="SVGID_2_" gradientUnits="userSpaceOnUse" x1="-20.573" y1="532.7419" x2="31.5181" y2="577.3914" gradientTransform="matrix(0.9998 2.016249e-02 -2.016249e-02 0.9998 39.171 -526.2256)">
	<stop offset="8.265736e-02" style="stop-color:#B74AF7"/>
    <stop offset="0.7519" style="stop-color:#FF318C"/>
</linearGradient>
  <path fill="url(#SVGID_2_)" d="M60.5,45.2c-0.1-0.2-0.3-0.3-0.5-0.5l0,0L22.7,5.6l0,0c-10.7-10.8-25.2,8-12.4,16l0,0l46.6,27.6  C59.2,50.8,62.3,47.5,60.5,45.2z"/>
  <linearGradient id="SVGID_3_" gradientUnits="userSpaceOnUse" x1="8.5179" y1="587.29" x2="50.3628" y2="527.9186" gradientTransform="matrix(0.9915 0.1304 -0.1304 0.9915 73.6296 -484.6211)">
	<stop offset="8.265736e-02" style="stop-color:#FCF84A"/>
    <stop offset="0.8565" style="stop-color:#FF318C"/>
</linearGradient>
  <path fill="url(#SVGID_3_)" d="M60.7,48.8c2.1-2.7-1.6-6-4.1-3.4l0,0L6.6,86.8l0,0c-6.8,5.5,0.7,16.8,8.4,12.3  c0.7-0.4,1.4-0.9,1.9-1.5L60.7,48.8L60.7,48.8z"/>
</svg>