<svg height="60" viewBox="0 0 60 60" width="60" xmlns="http://www.w3.org/2000/svg" xmlns:xlink="http://www.w3.org/1999/xlink"><linearGradient id="a" gradientTransform="matrix(1 0 0 -1 0 72)" gradientUnits="userSpaceOnUse" x1=".4724" x2="25.66297" y1="31.85074" y2="65.12503"><stop offset=".016" stop-color="#765af8"/><stop offset=".382" stop-color="#b345f1"/><stop offset=".758" stop-color="#fa3293"/><stop offset=".941" stop-color="#ff318c"/></linearGradient><linearGradient id="b" x1="2.32251" x2="27.4728" xlink:href="#a" y1="30.54552" y2="63.76667"/><linearGradient id="c" gradientTransform="matrix(1 0 0 -1 0 72)" gradientUnits="userSpaceOnUse" x1="43.59101" x2="29.37701" y1="32.22399" y2="65.95856"><stop offset=".183" stop-color="#765af8"/><stop offset=".238" stop-color="#8655f6"/><stop offset=".345" stop-color="#9f4cf3"/><stop offset=".443" stop-color="#ae47f2"/><stop offset=".522" stop-color="#b345f1"/></linearGradient><linearGradient id="d" gradientTransform="matrix(1 0 0 -1 0 72)" gradientUnits="userSpaceOnUse" x1="54.21515" x2="21.15686" y1="22.83567" y2="48.39824"><stop offset=".016" stop-color="#765af8"/><stop offset=".382" stop-color="#b345f1"/></linearGradient><path d="m33.94286 13.02857-2.82857-8.57143-20.91429-4.45714-10.2 11.57143 31.88571 16.28571z" fill="url(#a)"/><path d="m24 35.48572-.6-17.82858-23.4-6.08571 5.74286 34.37143 18.25714-.17143z" fill="url(#b)"/><path d="m18.94286 35.14286 1.11428-14.14286 16.97143-17.4 15.17143 2.74286 7.8 19.45714-8.14286 8.05714-13.28571-2.14285-8.22857 8.65714z" fill="url(#c)"/><path d="m37.02857 3.6-24.34285 21.6 4.71428 27.77143 20.22857 7.02857 22.37143-13.37143z" fill="url(#d)"/></svg>