<svg xmlns="http://www.w3.org/2000/svg" xmlns:xlink="http://www.w3.org/1999/xlink" fill="none" height="364" viewBox="0 0 648 364" width="648"><linearGradient id="a" gradientUnits="userSpaceOnUse" x1="48" x2="-62.6481" y1="211.167" y2="170.514"><stop offset="0" stop-color="#db46ff"/><stop offset="1" stop-color="#bb0de8"/></linearGradient><path d="m248 102h179v119c0 4.418-3.582 8-8 8h-163c-4.418 0-8-3.582-8-8z" fill="#fff" opacity=".2"/><rect fill="#fff" height="40" opacity=".5" rx="8" width="40" x="248" y="20"/><rect fill="#fff" height="16" opacity=".2" rx="8" width="97" x="302" y="20"/><rect fill="#fff" height="16" opacity=".2" rx="8" width="55" x="302" y="44"/><path d="m447 88c0-4.4183 3.582-8 8-8h163c4.418 0 8 3.5817 8 8v36h-179z" fill="#fff" opacity=".2"/><path d="m248 88c0-4.4183 3.582-8 8-8h163c4.418 0 8 3.5817 8 8v12h-179z" fill="#fff" opacity=".4"/><path d="m447 162c0 4.418 3.582 8 8 8h163c4.418 0 8-3.582 8-8v-36h-179z" fill="#fff" opacity=".2"/><path d="m447 200c0-4.418 3.582-8 8-8h163c4.418 0 8 3.582 8 8v36h-179z" fill="#fff" opacity=".2"/><path d="m447 238h179v44h-179z" fill="#fff" opacity=".2"/><path d="m447 320c0 4.418 3.582 8 8 8h163c4.418 0 8-3.582 8-8v-36h-179z" fill="#fff" opacity=".2"/><rect fill="#fff" height="60" opacity=".2" rx="8" width="179" x="248" y="249"/><path d="m248 338c0-4.418 3.582-8 8-8h163c4.418 0 8 3.582 8 8v26h-179z" fill="#fff" opacity=".2"/><path d="m48 0h179v364h-179z" fill="#005ecd" opacity=".45"/><g opacity=".5"><path d="m48 0h-48v364h48z" fill="#fff"/><path d="m48 0h-48v364h48z" fill="url(#a)"/></g><g fill="#fff"><rect height="16.67" opacity=".5" rx="8.335" width="22" x="13" y="72"/><path d="m22.2679 113c.7698-1.333 2.6944-1.333 3.4642 0l8.6602 15c.7698 1.333-.1924 3-1.732 3h-17.3206c-1.5396 0-2.5018-1.667-1.732-3z" opacity=".5"/><rect height="20" opacity=".5" rx="4" width="20" x="14" y="158"/><circle cx="24" cy="212" opacity=".5" r="10"/><circle cx="24" cy="36" opacity=".4" r="16"/><rect height="16" opacity=".4" rx="8" width="149" x="64" y="20"/><rect height="16" opacity=".2" rx="8" width="149" x="64" y="52"/><rect height="16" opacity=".2" rx="8" width="149" x="64" y="84"/><rect height="16" opacity=".4" rx="8" width="149" x="64" y="212"/><rect height="16" opacity=".2" rx="8" width="69" x="64" y="244"/><rect height="16" opacity=".2" rx="8" width="69" x="64" y="276"/><rect height="16" opacity=".4" rx="8" width="149" x="64" y="116"/><rect height="16" opacity=".2" rx="8" width="121" x="64" y="148"/><rect height="16" opacity=".2" rx="8" width="121" x="64" y="180"/><circle cx="20" cy="339" r="4"/><path d="m18 338.5h607v1h-607z"/><path d="m18.1357 355.089c1.4446 0 2.2756-1.224 2.2756-3.362 0-2.122-.8437-3.362-2.2756-3.362-1.4318 0-2.2755 1.24-2.2755 3.362 0 2.138.8309 3.362 2.2755 3.362zm0-.703c-.9524 0-1.5085-.955-1.5085-2.659 0-1.7.5625-2.672 1.5085-2.672.9461 0 1.5086.972 1.5086 2.672 0 1.704-.5561 2.659-1.5086 2.659zm4.0526.665c.3164 0 .5753-.259.5753-.575 0-.317-.2589-.575-.5753-.575s-.5753.258-.5753.575c0 .316.2589.575.5753.575zm0-3.643c.3164 0 .5753-.259.5753-.576 0-.316-.2589-.575-.5753-.575s-.5753.259-.5753.575c0 .317.2589.576.5753.576zm4.051 3.681c1.4446 0 2.2755-1.224 2.2755-3.362 0-2.122-.8437-3.362-2.2755-3.362-1.4319 0-2.2756 1.24-2.2756 3.362 0 2.138.831 3.362 2.2756 3.362zm0-.703c-.9525 0-1.5086-.955-1.5086-2.659 0-1.7.5625-2.672 1.5086-2.672.946 0 1.5085.972 1.5085 2.672 0 1.704-.5561 2.659-1.5085 2.659zm5.625.703c1.4446 0 2.2755-1.224 2.2755-3.362 0-2.122-.8437-3.362-2.2755-3.362-1.4319 0-2.2756 1.24-2.2756 3.362 0 2.138.831 3.362 2.2756 3.362zm0-.703c-.9525 0-1.5086-.955-1.5086-2.659 0-1.7.5625-2.672 1.5086-2.672.946 0 1.5085.972 1.5085 2.672 0 1.704-.5561 2.659-1.5085 2.659z"/><path d="m613.093 348.455h-.792l-1.637 1.086v.806l1.598-1.061h.039v5.714h.792zm4.184 0h-.793l-1.636 1.086v.806l1.598-1.061h.038v5.714h.793zm2.445 6.596c.316 0 .575-.259.575-.575 0-.317-.259-.575-.575-.575s-.575.258-.575.575c0 .316.259.575.575.575zm0-3.643c.316 0 .575-.259.575-.576 0-.316-.259-.575-.575-.575s-.575.259-.575.575c0 .317.259.576.575.576zm3.961 3.681c1.247 0 2.161-.92 2.161-2.173 0-1.269-.882-2.199-2.084-2.199-.441 0-.869.157-1.138.371h-.038l.23-1.93h2.736v-.703h-3.401l-.396 3.221.742.09c.271-.195.735-.336 1.137-.333.834.007 1.445.639 1.445 1.496 0 .841-.588 1.457-1.394 1.457-.671 0-1.204-.431-1.265-1.022h-.767c.048.997.907 1.725 2.032 1.725zm3.431-.089h4.129v-.703h-3.043v-.051l1.47-1.573c1.125-1.205 1.458-1.767 1.458-2.493 0-1.01-.818-1.815-1.969-1.815-1.147 0-2.02.78-2.02 1.93h.754c0-.744.483-1.24 1.24-1.24.71 0 1.253.435 1.253 1.125 0 .604-.354 1.052-1.112 1.88l-2.16 2.365z"/></g><circle cx="628" cy="339" r="3.5" stroke="#fff"/></svg>